<svg width="193" height="30" viewBox="0 0 193 30" fill="none" xmlns="http://www.w3.org/2000/svg">
<path d="M27.0011 5.99998C24.2645 2.35665 19.9074 0 15 0C13.8087 0 12.6499 0.138874 11.5387 0.401316C11.5002 0.438835 11.4619 0.476631 11.4238 0.514703C9.74559 2.19293 8.6027 4.33113 8.13967 6.6589C7.67665 8.98667 7.91429 11.3995 8.82254 13.5922C9.73079 15.7849 11.2689 17.659 13.2423 18.9776C14.3696 19.7309 15.6101 20.2835 16.9091 20.6189V11.25C16.9091 8.35049 19.2596 5.99998 22.1591 5.99998H27.0011Z" fill="#FF9A3E"/>
<path d="M28.7519 8.99998H22.1591C20.9165 8.99998 19.9091 10.0073 19.9091 11.25V21.75C19.9091 22.9926 18.8962 24.0173 17.6675 23.8316C15.4972 23.5035 13.4158 22.7016 11.5755 21.472C9.10881 19.8238 7.18622 17.4811 6.0509 14.7402C4.91559 11.9993 4.61854 8.98334 5.19732 6.07363C5.42127 4.94775 5.77246 3.85736 6.24041 2.82202C2.46067 5.54557 0 9.98542 0 15C0 23.2843 6.71573 30 15 30C23.2843 30 30 23.2843 30 15C30 12.8667 29.5547 10.8374 28.7519 8.99998Z" fill="#FF9A3E"/>
<path d="M47.35 6.5H55C56.8667 6.5 58.525 6.86667 59.975 7.6C61.425 8.31667 62.55 9.34167 63.35 10.675C64.15 11.9917 64.55 13.5167 64.55 15.25C64.55 16.9833 64.15 18.5167 63.35 19.85C62.55 21.1667 61.425 22.1917 59.975 22.925C58.525 23.6417 56.8667 24 55 24H47.35V6.5ZM54.85 21.25C56.1333 21.25 57.2583 21.0083 58.225 20.525C59.2083 20.025 59.9583 19.325 60.475 18.425C61.0083 17.5083 61.275 16.45 61.275 15.25C61.275 14.05 61.0083 13 60.475 12.1C59.9583 11.1833 59.2083 10.4833 58.225 10C57.2583 9.5 56.1333 9.25 54.85 9.25H50.6V21.25H54.85ZM70.3631 24.25C69.2464 24.25 68.2131 24.0333 67.2631 23.6C66.3298 23.15 65.5631 22.525 64.9631 21.725L66.8131 19.5C67.7798 20.8333 68.9381 21.5 70.2881 21.5C72.1048 21.5 73.0131 20.425 73.0131 18.275V9.225H66.7881V6.5H76.2631V18.1C76.2631 20.15 75.7631 21.6917 74.7631 22.725C73.7631 23.7417 72.2964 24.25 70.3631 24.25ZM96.8967 24L96.8717 12.4L91.1217 22H89.6717L83.9217 12.55V24H80.8217V6.5H83.4967L90.4467 18.1L97.2717 6.5H99.9467L99.9717 24H96.8967ZM115.158 9.25H109.358V6.5H124.208V9.25H118.408V24H115.158V9.25ZM137.53 17.4C137.53 17.6167 137.513 17.925 137.48 18.325H127.005C127.188 19.3083 127.663 20.0917 128.43 20.675C129.213 21.2417 130.18 21.525 131.33 21.525C132.796 21.525 134.005 21.0417 134.955 20.075L136.63 22C136.03 22.7167 135.271 23.2583 134.355 23.625C133.438 23.9917 132.405 24.175 131.255 24.175C129.788 24.175 128.496 23.8833 127.38 23.3C126.263 22.7167 125.396 21.9083 124.78 20.875C124.18 19.825 123.88 18.6417 123.88 17.325C123.88 16.025 124.171 14.8583 124.755 13.825C125.355 12.775 126.18 11.9583 127.23 11.375C128.28 10.7917 129.463 10.5 130.78 10.5C132.08 10.5 133.238 10.7917 134.255 11.375C135.288 11.9417 136.088 12.75 136.655 13.8C137.238 14.8333 137.53 16.0333 137.53 17.4ZM130.78 13C129.78 13 128.93 13.3 128.23 13.9C127.546 14.4833 127.13 15.2667 126.98 16.25H134.555C134.421 15.2833 134.013 14.5 133.33 13.9C132.646 13.3 131.796 13 130.78 13ZM148.106 10.5C149.79 10.5 151.14 10.9917 152.156 11.975C153.173 12.9583 153.681 14.4167 153.681 16.35V24H150.556V16.75C150.556 15.5833 150.281 14.7083 149.731 14.125C149.181 13.525 148.398 13.225 147.381 13.225C146.231 13.225 145.323 13.575 144.656 14.275C143.99 14.9583 143.656 15.95 143.656 17.25V24H140.531V10.65H143.506V12.375C144.023 11.7583 144.673 11.2917 145.456 10.975C146.24 10.6583 147.123 10.5 148.106 10.5ZM165.221 10.5C166.904 10.5 168.254 10.9917 169.271 11.975C170.287 12.9583 170.796 14.4167 170.796 16.35V24H167.671V16.75C167.671 15.5833 167.396 14.7083 166.846 14.125C166.296 13.525 165.512 13.225 164.496 13.225C163.346 13.225 162.437 13.575 161.771 14.275C161.104 14.9583 160.771 15.95 160.771 17.25V24H157.646V10.65H160.621V12.375C161.137 11.7583 161.787 11.2917 162.571 10.975C163.354 10.6583 164.237 10.5 165.221 10.5ZM174.76 10.65H177.885V24H174.76V10.65ZM176.335 8.45C175.768 8.45 175.293 8.275 174.91 7.925C174.527 7.55833 174.335 7.10833 174.335 6.575C174.335 6.04167 174.527 5.6 174.91 5.25C175.293 4.88333 175.768 4.7 176.335 4.7C176.902 4.7 177.377 4.875 177.76 5.225C178.143 5.55833 178.335 5.98333 178.335 6.5C178.335 7.05 178.143 7.51667 177.76 7.9C177.393 8.26667 176.918 8.45 176.335 8.45ZM186.112 24.175C185.028 24.175 183.97 24.0333 182.937 23.75C181.903 23.4667 181.078 23.1083 180.462 22.675L181.662 20.3C182.262 20.7 182.978 21.025 183.812 21.275C184.662 21.5083 185.495 21.625 186.312 21.625C188.178 21.625 189.112 21.1333 189.112 20.15C189.112 19.6833 188.87 19.3583 188.387 19.175C187.92 18.9917 187.162 18.8167 186.112 18.65C185.012 18.4833 184.112 18.2917 183.412 18.075C182.728 17.8583 182.128 17.4833 181.612 16.95C181.112 16.4 180.862 15.6417 180.862 14.675C180.862 13.4083 181.387 12.4 182.437 11.65C183.503 10.8833 184.937 10.5 186.737 10.5C187.653 10.5 188.57 10.6083 189.487 10.825C190.403 11.025 191.153 11.3 191.737 11.65L190.537 14.025C189.403 13.3583 188.128 13.025 186.712 13.025C185.795 13.025 185.095 13.1667 184.612 13.45C184.145 13.7167 183.912 14.075 183.912 14.525C183.912 15.025 184.162 15.3833 184.662 15.6C185.178 15.8 185.97 15.9917 187.037 16.175C188.103 16.3417 188.978 16.5333 189.662 16.75C190.345 16.9667 190.928 17.3333 191.412 17.85C191.912 18.3667 192.162 19.1 192.162 20.05C192.162 21.3 191.62 22.3 190.537 23.05C189.453 23.8 187.978 24.175 186.112 24.175Z" fill="#2C2745"/>
</svg>
