<svg width="500" height="500" viewBox="0 0 500 500" fill="none" xmlns="http://www.w3.org/2000/svg">
<g clip-path="url(#clip0_769_49)">
<path d="M129.117 409.552C132.91 375.643 161.581 350 195.702 350H292.298C326.419 350 355.09 375.643 358.883 409.552L369 500H119L129.117 409.552Z" fill="#333333"/>
<mask id="mask0_769_49" style="mask-type:alpha" maskUnits="userSpaceOnUse" x="119" y="350" width="250" height="150">
<path d="M129.117 409.552C132.91 375.643 161.581 350 195.702 350H292.298C326.419 350 355.09 375.643 358.883 409.552L369 500H119L129.117 409.552Z" fill="#00D355"/>
</mask>
<g mask="url(#mask0_769_49)">
<path d="M135.117 409.552C138.91 375.643 167.581 350 201.702 350H298.298C332.419 350 361.09 375.643 364.883 409.552L375 500H125L135.117 409.552Z" fill="#2027C1"/>
<path d="M240.756 484.411C236.809 479.192 231.081 477.6 228.711 477.456C227.09 478.524 224.236 482.889 225.783 491.799C227.718 502.937 236.838 504.528 246.548 511.47C254.316 517.024 263.595 509.955 267.263 505.727C266.411 506.237 263.172 506.438 257.033 503.161C249.36 499.065 245.69 490.933 240.756 484.411Z" fill="url(#paint0_linear_769_49)"/>
</g>
<path fill-rule="evenodd" clip-rule="evenodd" d="M175 440C176.657 440 178 441.343 178 443V500C178 501.657 176.657 503 175 503C173.343 503 172 501.657 172 500V443C172 441.343 173.343 440 175 440Z" fill="url(#paint1_linear_769_49)"/>
<path fill-rule="evenodd" clip-rule="evenodd" d="M307 440C308.657 440 310 441.343 310 443V500C310 501.657 308.657 503 307 503C305.343 503 304 501.657 304 500V443C304 441.343 305.343 440 307 440Z" fill="url(#paint2_linear_769_49)"/>
</g>
<g clip-path="url(#clip1_769_49)">
<path d="M228.061 295.334H254.414L261.353 349.241C262.914 361.37 253.467 372.112 241.238 372.112V372.112C229.008 372.112 219.561 361.37 221.122 349.241L228.061 295.334Z" fill="#FBC6D7"/>
<mask id="mask1_769_49" style="mask-type:alpha" maskUnits="userSpaceOnUse" x="220" y="295" width="42" height="78">
<path d="M228.061 295.334H254.414L261.353 349.241C262.914 361.37 253.467 372.112 241.238 372.112V372.112C229.008 372.112 219.561 361.37 221.122 349.241L228.061 295.334Z" fill="#FF7CA6"/>
</mask>
<g mask="url(#mask1_769_49)">
<path d="M229.159 295.334H255.512L258.807 312.883C249.821 326.827 237.943 328.239 220.374 332.626L229.159 295.334Z" fill="#FF7CA6"/>
</g>
<path d="M181.072 228.813C183.643 236.897 180.574 245.082 174.217 247.093C167.859 249.105 160.621 244.182 158.049 236.098C155.477 228.014 158.546 219.829 164.904 217.818C171.261 215.806 178.5 220.729 181.072 228.813Z" fill="#FBC6D7"/>
<path d="M178.455 229.721C180.131 234.994 177.93 240.396 173.539 241.786C169.149 243.177 164.231 240.03 162.556 234.758C160.88 229.485 163.081 224.083 167.472 222.692C171.862 221.302 176.78 224.449 178.455 229.721Z" fill="#FF7CA6"/>
<path d="M302.983 233.201C300.411 241.285 303.48 249.469 309.838 251.481C316.195 253.492 323.434 248.57 326.005 240.485C328.577 232.401 325.508 224.217 319.15 222.205C312.793 220.193 305.554 225.116 302.983 233.201Z" fill="#FBC6D7"/>
<path d="M305.599 234.109C303.923 239.381 306.124 244.783 310.515 246.174C314.905 247.564 319.823 244.418 321.498 239.145C323.174 233.872 320.973 228.47 316.582 227.08C312.192 225.689 307.274 228.836 305.599 234.109Z" fill="#FF7CA6"/>
<path d="M307.122 238.299C307.122 280.702 277.625 315.077 241.238 315.077C204.851 315.077 175.354 280.702 175.354 238.299C175.354 195.896 204.851 161.521 241.238 161.521C277.625 161.521 307.122 195.896 307.122 238.299Z" fill="#FBC6D7"/>
<mask id="mask2_769_49" style="mask-type:alpha" maskUnits="userSpaceOnUse" x="175" y="161" width="133" height="155">
<path d="M307.122 238.299C307.122 280.702 277.625 315.077 241.238 315.077C204.851 315.077 175.354 280.702 175.354 238.299C175.354 195.896 204.851 161.521 241.238 161.521C277.625 161.521 307.122 195.896 307.122 238.299Z" fill="#FBC6D7"/>
</mask>
<g mask="url(#mask2_769_49)">
<path d="M307 272C307 281.941 298.941 290 289 290C279.059 290 271 281.941 271 272C271 262.059 279.059 254 289 254C298.941 254 307 262.059 307 272Z" fill="#FF5E5E"/>
<path d="M214 272C214 281.941 205.941 290 196 290C186.059 290 178 281.941 178 272C178 262.059 186.059 254 196 254C205.941 254 214 262.059 214 272Z" fill="#FF5E5E"/>
</g>
<path fill-rule="evenodd" clip-rule="evenodd" d="M254.718 288.976C255.284 289.925 254.972 291.153 254.024 291.718C249.651 294.323 245.924 295.937 242.031 295.998C238.104 296.06 234.352 294.541 229.916 291.681C228.988 291.082 228.721 289.844 229.319 288.916C229.918 287.988 231.155 287.72 232.084 288.319C236.243 291.001 239.193 292.042 241.968 291.999C244.778 291.954 247.754 290.797 251.976 288.282C252.925 287.716 254.153 288.027 254.718 288.976Z" fill="#FF7FA8"/>
<path d="M216 238C216 242.971 213.761 247 211 247C208.239 247 206 242.971 206 238C206 233.029 208.239 229 211 229C213.761 229 216 233.029 216 238Z" fill="#3B2144"/>
<path d="M276 238C276 242.971 273.761 247 271 247C268.239 247 266 242.971 266 238C266 233.029 268.239 229 271 229C273.761 229 276 233.029 276 238Z" fill="#3B2144"/>
<path fill-rule="evenodd" clip-rule="evenodd" d="M238.5 232.5C239.605 232.5 240.5 233.395 240.5 234.5V262.122L249.657 260.53C250.746 260.34 251.781 261.069 251.97 262.157C252.16 263.246 251.431 264.281 250.343 264.47L238.843 266.47C238.261 266.572 237.664 266.411 237.213 266.031C236.761 265.651 236.5 265.09 236.5 264.5V234.5C236.5 233.395 237.395 232.5 238.5 232.5Z" fill="#FF7FA8"/>
<path d="M174 187.062C174 180.965 179.422 176.298 185.466 177.095C226.718 182.537 254.332 182.631 296.538 177.088C302.581 176.295 308 180.962 308 187.057V198.9C308 203.764 304.486 207.934 299.685 208.717C253.523 216.248 225.2 216.564 182.119 208.834C177.405 207.988 174 203.858 174 199.069V187.062Z" fill="white"/>
<mask id="mask3_769_49" style="mask-type:alpha" maskUnits="userSpaceOnUse" x="174" y="177" width="134" height="38">
<path d="M174 187.062C174 180.965 179.422 176.298 185.466 177.095C226.718 182.537 254.332 182.631 296.538 177.088C302.581 176.295 308 180.962 308 187.057V198.9C308 203.764 304.486 207.934 299.685 208.717C253.523 216.248 225.2 216.564 182.119 208.834C177.405 207.988 174 203.858 174 199.069V187.062Z" fill="white"/>
</mask>
<g mask="url(#mask3_769_49)">
<path d="M202.855 232.264C196.878 225.671 202.129 214.617 211.008 214.021C266.96 210.27 308.616 179.597 330.395 176.785C350.513 174.187 342.4 196.12 338.546 204.633C337.572 206.785 335.74 208.406 333.542 209.271C286.039 227.981 257.762 234.352 210.279 235.465C207.459 235.531 204.75 234.355 202.855 232.264V232.264Z" fill="#E9E9E9"/>
</g>
</g>
<path fill-rule="evenodd" clip-rule="evenodd" d="M271.065 214.529C267.628 214.788 264.407 216.789 262.224 219.868C261.744 220.544 260.808 220.703 260.132 220.224C259.457 219.744 259.297 218.808 259.777 218.132C262.391 214.446 266.374 211.874 270.84 211.537C275.355 211.197 280.102 213.161 284.154 218.042C284.683 218.679 284.596 219.625 283.958 220.154C283.321 220.683 282.375 220.596 281.846 219.958C278.305 215.693 274.452 214.274 271.065 214.529Z" fill="#FF7FA8"/>
<path fill-rule="evenodd" clip-rule="evenodd" d="M206.065 216.529C202.628 216.788 199.407 218.789 197.224 221.868C196.744 222.544 195.808 222.703 195.132 222.224C194.457 221.744 194.297 220.808 194.777 220.132C197.391 216.446 201.374 213.874 205.84 213.537C210.355 213.197 215.102 215.161 219.154 220.042C219.683 220.679 219.596 221.625 218.958 222.154C218.321 222.683 217.375 222.596 216.846 221.958C213.305 217.693 209.452 216.274 206.065 216.529Z" fill="#FF7FA8"/>
<path fill-rule="evenodd" clip-rule="evenodd" d="M176.489 243.961C176.635 247.505 176.992 250.984 177.547 254.381C169.474 252.933 164.96 246.205 164.96 228.223C153.244 190.945 170.285 138.757 232.059 138.757C316.431 129.177 322.172 203.564 310.388 224.633C308.758 225.072 307.179 225.902 305.747 227.055C305.536 228.564 305.321 230.069 305.106 231.568C304.421 236.357 303.746 241.079 303.24 245.625C300.045 222.194 274.483 177.46 258.507 177.46C245.726 177.46 243.241 207.283 243.596 218.998C233.372 213.886 229.395 187.046 228.685 177.46C214.2 184.277 208.449 215.448 207.384 224.324C198.863 219.211 203.833 191.306 207.384 183.851C199.432 181.863 189.034 211.951 182.298 231.44C180.372 237.012 178.746 241.718 177.562 244.56C177.174 244.388 176.818 244.188 176.489 243.961Z" fill="#1C1313"/>
<defs>
<linearGradient id="paint0_linear_769_49" x1="188.745" y1="462.065" x2="259.053" y2="508.354" gradientUnits="userSpaceOnUse">
<stop stop-color="white"/>
<stop offset="1" stop-color="white" stop-opacity="0"/>
</linearGradient>
<linearGradient id="paint1_linear_769_49" x1="175.5" y1="443" x2="175.5" y2="500" gradientUnits="userSpaceOnUse">
<stop stop-color="#307BC0" stop-opacity="0"/>
<stop offset="1" stop-color="#000212"/>
</linearGradient>
<linearGradient id="paint2_linear_769_49" x1="307.5" y1="443" x2="307.5" y2="500" gradientUnits="userSpaceOnUse">
<stop stop-color="#307BC0" stop-opacity="0"/>
<stop offset="1" stop-color="#000212"/>
</linearGradient>
<clipPath id="clip0_769_49">
<rect width="250" height="150" fill="white" transform="translate(119 350)"/>
</clipPath>
<clipPath id="clip1_769_49">
<rect width="177.269" height="210.591" fill="white" transform="translate(153.393 161.521)"/>
</clipPath>
</defs>
</svg>
