<svg width="500" height="500" viewBox="0 0 500 500" fill="none" xmlns="http://www.w3.org/2000/svg">
<mask id="mask0_24_496" style="mask-type:alpha" maskUnits="userSpaceOnUse" x="38" y="76" width="424" height="424">
<rect x="38" y="76" width="424" height="424" rx="70.6667" fill="#05BCF5"/>
</mask>
<g mask="url(#mask0_24_496)">
<g clip-path="url(#clip0_24_496)">
<path d="M148.471 414.067C152.331 379.561 181.506 353.467 216.227 353.467H314.524C349.245 353.467 378.42 379.561 382.28 414.067L392.576 506.107H138.176L148.471 414.067Z" fill="#FFC7FD"/>
<mask id="mask1_24_496" style="mask-type:alpha" maskUnits="userSpaceOnUse" x="138" y="353" width="255" height="154">
<path d="M148.471 414.067C152.331 379.561 181.506 353.467 216.227 353.467H314.524C349.245 353.467 378.42 379.561 382.28 414.067L392.576 506.107H138.176L148.471 414.067Z" fill="#00D355"/>
</mask>
<g mask="url(#mask1_24_496)">
<path d="M154.577 414.067C158.436 379.561 187.612 353.467 222.333 353.467H320.629C355.351 353.467 384.526 379.561 388.386 414.067L398.681 506.107H144.281L154.577 414.067Z" fill="#FF51F8"/>
<path d="M160.682 414.067C164.542 379.561 193.717 353.467 228.439 353.467H326.735C361.456 353.467 390.632 379.561 394.492 414.067L404.787 506.107H150.387L160.682 414.067Z" fill="url(#paint0_linear_24_496)"/>
</g>
<path fill-rule="evenodd" clip-rule="evenodd" d="M195.162 445.051C196.848 445.051 198.214 446.417 198.214 448.103V506.107C198.214 507.793 196.848 509.159 195.162 509.159C193.476 509.159 192.109 507.793 192.109 506.107V448.103C192.109 446.417 193.476 445.051 195.162 445.051Z" fill="url(#paint1_linear_24_496)"/>
<path fill-rule="evenodd" clip-rule="evenodd" d="M329.483 445.051C331.169 445.051 332.536 446.417 332.536 448.103V506.107C332.536 507.793 331.169 509.159 329.483 509.159C327.797 509.159 326.431 507.793 326.431 506.107V448.103C326.431 446.417 327.797 445.051 329.483 445.051Z" fill="url(#paint2_linear_24_496)"/>
</g>
<g clip-path="url(#clip1_24_496)">
<path d="M249.143 297.837H275.961L283.022 352.694C284.61 365.036 274.996 375.967 262.552 375.967C250.108 375.967 240.494 365.036 242.082 352.694L249.143 297.837Z" fill="#FBC6D7"/>
<mask id="mask2_24_496" style="mask-type:alpha" maskUnits="userSpaceOnUse" x="241" y="297" width="43" height="79">
<path d="M249.143 297.837H275.961L283.022 352.694C284.61 365.036 274.996 375.967 262.552 375.967C250.108 375.967 240.494 365.036 242.082 352.694L249.143 297.837Z" fill="#FF7CA6"/>
</mask>
<g mask="url(#mask2_24_496)">
<path d="M250.259 297.837H277.077L280.429 315.696C271.285 329.885 259.199 331.321 241.32 335.786L250.259 297.837Z" fill="#FF7CA6"/>
</g>
<path d="M201.33 230.147C203.947 238.373 200.824 246.702 194.354 248.749C187.885 250.796 180.519 245.786 177.902 237.56C175.285 229.333 178.408 221.005 184.878 218.958C191.347 216.911 198.713 221.92 201.33 230.147Z" fill="#FBC6D7"/>
<path d="M198.667 231.071C200.372 236.436 198.133 241.933 193.665 243.348C189.197 244.763 184.193 241.561 182.488 236.196C180.783 230.83 183.023 225.333 187.49 223.918C191.958 222.503 196.962 225.705 198.667 231.071Z" fill="#FF7CA6"/>
<path d="M325.387 234.612C322.77 242.839 325.893 251.167 332.363 253.214C338.832 255.261 346.198 250.252 348.815 242.025C351.432 233.798 348.309 225.47 341.84 223.423C335.37 221.376 328.004 226.385 325.387 234.612Z" fill="#FBC6D7"/>
<path d="M328.05 235.536C326.345 240.901 328.585 246.398 333.053 247.813C337.52 249.228 342.524 246.026 344.229 240.661C345.934 235.295 343.695 229.799 339.227 228.383C334.759 226.968 329.755 230.17 328.05 235.536Z" fill="#FF7CA6"/>
<path d="M329.597 239.799C329.597 282.948 299.58 317.928 262.553 317.928C225.526 317.928 195.509 282.948 195.509 239.799C195.509 196.649 225.526 161.669 262.553 161.669C299.58 161.669 329.597 196.649 329.597 239.799Z" fill="#FBC6D7"/>
<mask id="mask3_24_496" style="mask-type:alpha" maskUnits="userSpaceOnUse" x="195" y="161" width="135" height="157">
<path d="M329.598 239.799C329.598 282.948 299.582 317.928 262.555 317.928C225.528 317.928 195.511 282.948 195.511 239.799C195.511 196.649 225.528 161.669 262.555 161.669C299.582 161.669 329.598 196.649 329.598 239.799Z" fill="#FBC6D7"/>
</mask>
<g mask="url(#mask3_24_496)">
<path d="M329.474 274.092C329.474 284.208 321.273 292.409 311.157 292.409C301.041 292.409 292.84 284.208 292.84 274.092C292.84 263.976 301.041 255.776 311.157 255.776C321.273 255.776 329.474 263.976 329.474 274.092Z" fill="#FF5E5E"/>
<path d="M234.838 274.092C234.838 284.208 226.637 292.409 216.521 292.409C206.405 292.409 198.204 284.208 198.204 274.092C198.204 263.976 206.405 255.776 216.521 255.776C226.637 255.776 234.838 263.976 234.838 274.092Z" fill="#FF5E5E"/>
</g>
<path fill-rule="evenodd" clip-rule="evenodd" d="M276.27 291.368C276.845 292.334 276.528 293.583 275.563 294.158C271.113 296.809 267.321 298.451 263.359 298.513C259.363 298.576 255.544 297.03 251.031 294.12C250.086 293.511 249.814 292.251 250.423 291.307C251.032 290.362 252.292 290.09 253.237 290.699C257.47 293.428 260.471 294.488 263.295 294.443C266.154 294.398 269.182 293.221 273.48 290.661C274.445 290.086 275.694 290.402 276.27 291.368Z" fill="#FF7FA8"/>
<path d="M236.873 239.493C236.873 244.551 234.595 248.652 231.785 248.652C228.975 248.652 226.697 244.551 226.697 239.493C226.697 234.435 228.975 230.335 231.785 230.335C234.595 230.335 236.873 234.435 236.873 239.493Z" fill="#3B2144"/>
<path d="M297.928 239.493C297.928 244.551 295.65 248.652 292.84 248.652C290.03 248.652 287.752 244.551 287.752 239.493C287.752 234.435 290.03 230.335 292.84 230.335C295.65 230.335 297.928 234.435 297.928 239.493Z" fill="#3B2144"/>
<path fill-rule="evenodd" clip-rule="evenodd" d="M259.77 233.899C260.894 233.899 261.805 234.81 261.805 235.934V264.043L271.123 262.422C272.231 262.229 273.285 262.971 273.477 264.078C273.67 265.186 272.928 266.24 271.821 266.432L260.118 268.467C259.526 268.57 258.919 268.407 258.46 268.02C258 267.633 257.734 267.063 257.734 266.462V235.934C257.734 234.81 258.646 233.899 259.77 233.899Z" fill="#FF7FA8"/>
</g>
<path fill-rule="evenodd" clip-rule="evenodd" d="M292.906 215.609C289.409 215.872 286.131 217.909 283.909 221.042C283.421 221.73 282.469 221.892 281.781 221.404C281.093 220.916 280.931 219.964 281.419 219.276C284.079 215.525 288.133 212.907 292.677 212.565C297.271 212.219 302.103 214.217 306.226 219.184C306.764 219.833 306.675 220.795 306.026 221.333C305.378 221.872 304.415 221.783 303.877 221.134C300.274 216.794 296.353 215.349 292.906 215.609Z" fill="#FF7FA8"/>
<path fill-rule="evenodd" clip-rule="evenodd" d="M226.766 217.645C223.269 217.908 219.992 219.945 217.77 223.078C217.282 223.765 216.329 223.927 215.641 223.44C214.954 222.952 214.792 221.999 215.279 221.312C217.94 217.56 221.993 214.943 226.537 214.601C231.132 214.254 235.963 216.253 240.086 221.22C240.625 221.868 240.535 222.831 239.887 223.369C239.238 223.907 238.276 223.818 237.737 223.169C234.134 218.829 230.213 217.385 226.766 217.645Z" fill="#FF7FA8"/>
<path fill-rule="evenodd" clip-rule="evenodd" d="M229.343 307.747C213.169 296.933 201.359 278.245 197.752 256.164L197.414 256.1C196.098 270.102 197.99 276.147 199.119 279.751C199.541 281.1 199.856 282.107 199.856 283.062C186.207 269.413 186.33 259.532 190.174 252.016C189.74 251.512 189.333 250.959 188.951 250.354C189.562 250.575 190.182 250.743 190.808 250.853L190.808 250.853C185.987 250.002 181.433 245.748 179.516 239.706C177.432 233.138 179.112 226.501 183.265 223.242C175.041 186 193.779 138.505 253.226 138.505C256.279 138.158 259.23 137.92 262.082 137.783C255.264 130.647 246.453 124.967 235.473 121.134C191.037 110.295 155.687 131.627 135.762 186.163C128.292 206.608 132.669 232.744 137.29 260.344C144.995 306.364 153.382 356.452 108.667 391.005C129.58 391.005 157.439 385.586 169.361 355.239C169.361 364.16 156.448 379.187 152.798 383.434C151.571 384.862 151.391 385.071 153.103 383.418C208.966 379.871 213.66 358.188 217.398 340.922C218.229 337.084 219.012 333.465 220.3 330.311C222.644 322.238 225.745 314.802 229.343 307.747Z" fill="#3D0525"/>
<path fill-rule="evenodd" clip-rule="evenodd" d="M197.528 254.798C197.595 255.255 197.666 255.71 197.74 256.165C197.626 256.144 197.512 256.123 197.399 256.1C196.082 270.103 197.975 276.147 199.103 279.752C199.525 281.101 199.841 282.108 199.841 283.063C186.19 269.412 186.314 259.53 190.159 252.014C189.727 251.511 189.32 250.959 188.938 250.354C189.548 250.575 190.168 250.743 190.792 250.853C192.142 248.52 193.82 246.423 195.496 244.515C192.577 241.175 192.865 234.654 193.225 226.531C193.288 225.097 193.354 223.613 193.405 222.088C191.1 221.108 188.629 220.893 186.279 221.639C185.164 221.993 184.15 222.539 183.253 223.244C175.029 186.002 193.766 138.505 253.214 138.505C339.073 128.757 344.913 204.456 332.92 225.894C331.263 226.341 329.657 227.185 328.201 228.358C327.986 229.893 327.767 231.425 327.548 232.95C327.124 235.917 326.703 238.859 326.323 241.75L326.567 242.015C334.16 250.277 345.228 262.318 324.484 283.063C324.484 282.108 324.799 281.101 325.221 279.752C326.576 275.425 329.032 267.581 325.715 246.675L325.65 247.255C322.398 223.411 296.387 177.891 280.129 177.891C267.124 177.891 264.595 208.238 264.956 220.16C254.551 214.957 250.505 187.645 249.782 177.891C235.043 184.827 229.19 216.547 228.106 225.579C219.436 220.376 224.493 191.98 228.106 184.393C220.015 182.371 209.433 212.988 202.579 232.82L202.579 232.82C201.424 236.163 200.374 239.2 199.46 241.722C198.544 246.697 197.923 251.023 197.528 254.798Z" fill="#4C062E"/>
</g>
<defs>
<linearGradient id="paint0_linear_24_496" x1="277.587" y1="353.467" x2="277.587" y2="441.998" gradientUnits="userSpaceOnUse">
<stop stop-color="#FF8DFA"/>
<stop offset="1" stop-color="#FF18F6"/>
</linearGradient>
<linearGradient id="paint1_linear_24_496" x1="195.67" y1="448.103" x2="195.67" y2="506.107" gradientUnits="userSpaceOnUse">
<stop stop-color="#A812A2" stop-opacity="0"/>
<stop offset="1" stop-color="#D61FCE"/>
</linearGradient>
<linearGradient id="paint2_linear_24_496" x1="329.992" y1="448.103" x2="329.992" y2="506.107" gradientUnits="userSpaceOnUse">
<stop stop-color="#A812A2" stop-opacity="0"/>
<stop offset="1" stop-color="#D61FCE"/>
</linearGradient>
<clipPath id="clip0_24_496">
<rect width="254.4" height="152.64" fill="white" transform="translate(138.176 353.467)"/>
</clipPath>
<clipPath id="clip1_24_496">
<rect width="180.389" height="214.297" fill="white" transform="translate(173.164 161.669)"/>
</clipPath>
</defs>
</svg>
