<svg width="500" height="500" viewBox="0 0 500 500" fill="none" xmlns="http://www.w3.org/2000/svg">
<path d="M140.62 254.926C140.62 202.55 151.925 115.257 236.201 120.392C328.699 114.23 335.893 182.011 335.893 232.333C357.476 261.088 352.517 305.208 345.143 319.626C362.615 368.921 385.689 402.532 335.893 410C326.914 409.941 245.679 405.892 238.257 405.892C230.017 405.892 149.136 405.813 140.62 405.892C90.2554 398.424 140.62 359.678 134.453 331.95C127.08 317.532 128.287 280.601 140.62 254.926Z" fill="#3B2144"/>
<path d="M170.414 276.968C170.414 232.174 187.121 158.484 236.495 170.256C236.786 170.326 237.113 170.333 237.406 170.274C288.168 160.121 303.484 214.546 303.484 257.586C318.191 282.254 314.812 320.103 309.787 332.472C321.693 374.76 337.417 403.594 303.484 410C297.365 409.95 242.007 406.476 236.949 406.476C231.334 406.476 176.218 406.409 170.414 406.476C136.093 400.07 170.414 366.831 166.212 343.044C161.188 330.676 162.01 298.993 170.414 276.968Z" fill="#280434"/>
<g clip-path="url(#clip0_30_720)">
<path d="M129.117 409.552C132.91 375.643 161.581 350 195.702 350H292.298C326.419 350 355.09 375.643 358.883 409.552L369 500H119L129.117 409.552Z" fill="#B9C4FF"/>
<mask id="mask0_30_720" style="mask-type:alpha" maskUnits="userSpaceOnUse" x="119" y="350" width="250" height="150">
<path d="M129.117 409.552C132.91 375.643 161.581 350 195.702 350H292.298C326.419 350 355.09 375.643 358.883 409.552L369 500H119L129.117 409.552Z" fill="#00D355"/>
</mask>
<g mask="url(#mask0_30_720)">
<path d="M135.117 409.552C138.91 375.643 167.581 350 201.702 350H298.298C332.419 350 361.09 375.643 364.883 409.552L375 500H125L135.117 409.552Z" fill="#516DFF"/>
<path d="M141.117 409.552C144.91 375.643 173.581 350 207.702 350H304.298C338.419 350 367.09 375.643 370.883 409.552L381 500H131L141.117 409.552Z" fill="url(#paint0_linear_30_720)"/>
<path d="M222.472 482.884C218.525 477.666 212.797 476.074 210.426 475.93C208.805 476.998 205.951 481.363 207.499 490.273C209.433 501.41 218.553 503.001 228.263 509.944C236.032 515.498 245.31 508.429 248.978 504.2C248.126 504.71 244.887 504.911 238.749 501.634C231.076 497.538 227.405 489.407 222.472 482.884Z" fill="url(#paint1_linear_30_720)"/>
</g>
<path fill-rule="evenodd" clip-rule="evenodd" d="M175 440C176.657 440 178 441.343 178 443V500C178 501.657 176.657 503 175 503C173.343 503 172 501.657 172 500V443C172 441.343 173.343 440 175 440Z" fill="url(#paint2_linear_30_720)"/>
<path fill-rule="evenodd" clip-rule="evenodd" d="M307 440C308.657 440 310 441.343 310 443V500C310 501.657 308.657 503 307 503C305.343 503 304 501.657 304 500V443C304 441.343 305.343 440 307 440Z" fill="url(#paint3_linear_30_720)"/>
</g>
<g clip-path="url(#clip1_30_720)">
<path d="M228.061 295.334H254.414L261.353 349.241C262.914 361.37 253.467 372.112 241.238 372.112C229.009 372.112 219.561 361.37 221.122 349.241L228.061 295.334Z" fill="#FBC6D7"/>
<mask id="mask1_30_720" style="mask-type:alpha" maskUnits="userSpaceOnUse" x="220" y="295" width="42" height="78">
<path d="M228.061 295.334H254.414L261.353 349.241C262.914 361.37 253.467 372.112 241.238 372.112C229.009 372.112 219.561 361.37 221.122 349.241L228.061 295.334Z" fill="#FF7CA6"/>
</mask>
<g mask="url(#mask1_30_720)">
<path d="M229.159 295.334H255.513L258.807 312.883C249.821 326.827 237.943 328.239 220.374 332.626L229.159 295.334Z" fill="#FF7CA6"/>
</g>
<path d="M181.072 228.813C183.643 236.897 180.574 245.082 174.217 247.093C167.859 249.105 160.621 244.182 158.049 236.098C155.477 228.014 158.546 219.829 164.904 217.818C171.261 215.806 178.5 220.729 181.072 228.813Z" fill="#FBC6D7"/>
<path d="M178.455 229.721C180.131 234.994 177.93 240.396 173.539 241.786C169.149 243.177 164.231 240.03 162.556 234.758C160.88 229.485 163.081 224.083 167.472 222.692C171.862 221.302 176.78 224.449 178.455 229.721Z" fill="#FF7CA6"/>
<path d="M302.983 233.201C300.411 241.285 303.48 249.469 309.838 251.481C316.195 253.492 323.434 248.57 326.005 240.485C328.577 232.401 325.508 224.217 319.15 222.205C312.793 220.193 305.554 225.116 302.983 233.201Z" fill="#FBC6D7"/>
<path d="M305.599 234.109C303.923 239.381 306.124 244.783 310.515 246.174C314.905 247.564 319.823 244.418 321.498 239.145C323.174 233.872 320.973 228.47 316.582 227.08C312.192 225.689 307.274 228.836 305.599 234.109Z" fill="#FF7CA6"/>
<path d="M307.122 238.299C307.122 280.702 277.625 315.077 241.238 315.077C204.851 315.077 175.354 280.702 175.354 238.299C175.354 195.896 204.851 161.521 241.238 161.521C277.625 161.521 307.122 195.896 307.122 238.299Z" fill="#FBC6D7"/>
<mask id="mask2_30_720" style="mask-type:alpha" maskUnits="userSpaceOnUse" x="175" y="161" width="133" height="155">
<path d="M307.122 238.299C307.122 280.702 277.625 315.077 241.238 315.077C204.851 315.077 175.354 280.702 175.354 238.299C175.354 195.896 204.851 161.521 241.238 161.521C277.625 161.521 307.122 195.896 307.122 238.299Z" fill="#FBC6D7"/>
</mask>
<g mask="url(#mask2_30_720)">
<path d="M307 272C307 281.941 298.941 290 289 290C279.059 290 271 281.941 271 272C271 262.059 279.059 254 289 254C298.941 254 307 262.059 307 272Z" fill="#FF5E5E"/>
<path d="M214 272C214 281.941 205.941 290 196 290C186.059 290 178 281.941 178 272C178 262.059 186.059 254 196 254C205.941 254 214 262.059 214 272Z" fill="#FF5E5E"/>
</g>
<path fill-rule="evenodd" clip-rule="evenodd" d="M254.718 288.976C255.284 289.925 254.972 291.153 254.024 291.718C249.651 294.323 245.924 295.937 242.031 295.998C238.104 296.06 234.352 294.541 229.916 291.681C228.988 291.082 228.721 289.844 229.319 288.916C229.918 287.988 231.155 287.72 232.084 288.319C236.243 291.001 239.193 292.042 241.968 291.999C244.778 291.954 247.754 290.797 251.976 288.282C252.925 287.716 254.153 288.027 254.718 288.976Z" fill="#FF7FA8"/>
<path d="M216 238C216 242.971 213.761 247 211 247C208.239 247 206 242.971 206 238C206 233.029 208.239 229 211 229C213.761 229 216 233.029 216 238Z" fill="#3B2144"/>
<path d="M276 238C276 242.971 273.761 247 271 247C268.239 247 266 242.971 266 238C266 233.029 268.239 229 271 229C273.761 229 276 233.029 276 238Z" fill="#3B2144"/>
<path fill-rule="evenodd" clip-rule="evenodd" d="M238.5 232.5C239.605 232.5 240.5 233.395 240.5 234.5V262.122L249.657 260.53C250.746 260.34 251.781 261.069 251.97 262.157C252.16 263.246 251.431 264.281 250.343 264.47L238.843 266.47C238.261 266.572 237.664 266.411 237.213 266.031C236.761 265.651 236.5 265.09 236.5 264.5V234.5C236.5 233.395 237.395 232.5 238.5 232.5Z" fill="#FF7FA8"/>
<path d="M167.921 225.724C183.516 213.173 217.995 184.304 231.146 169.242C250.535 187.233 293.613 224.971 310.81 232C318.819 220.285 328.007 193.09 300.694 178.028C266.552 159.201 210.914 130.333 183.095 178.028C160.839 216.185 163.706 225.724 167.921 225.724Z" fill="#3B2144"/>
</g>
<defs>
<linearGradient id="paint0_linear_30_720" x1="230.5" y1="534" x2="272.5" y2="350" gradientUnits="userSpaceOnUse">
<stop stop-color="#4457FF"/>
<stop offset="1" stop-color="#A6BFFF"/>
</linearGradient>
<linearGradient id="paint1_linear_30_720" x1="170.461" y1="460.538" x2="240.768" y2="506.828" gradientUnits="userSpaceOnUse">
<stop stop-color="white"/>
<stop offset="1" stop-color="white" stop-opacity="0"/>
</linearGradient>
<linearGradient id="paint2_linear_30_720" x1="175.5" y1="443" x2="175.5" y2="500" gradientUnits="userSpaceOnUse">
<stop stop-color="#1C23D6" stop-opacity="0"/>
<stop offset="1" stop-color="#1C23D6"/>
</linearGradient>
<linearGradient id="paint3_linear_30_720" x1="307.5" y1="443" x2="307.5" y2="500" gradientUnits="userSpaceOnUse">
<stop stop-color="#1C23D6" stop-opacity="0"/>
<stop offset="1" stop-color="#1C23D6"/>
</linearGradient>
<clipPath id="clip0_30_720">
<rect width="250" height="150" fill="white" transform="translate(119 350)"/>
</clipPath>
<clipPath id="clip1_30_720">
<rect width="177.269" height="210.591" fill="white" transform="translate(153.393 161.521)"/>
</clipPath>
</defs>
</svg>
