<svg width="500" height="500" viewBox="0 0 500 500" fill="none" xmlns="http://www.w3.org/2000/svg">
<g clip-path="url(#clip0_24_333)">
<mask id="mask0_24_333" style="mask-type:alpha" maskUnits="userSpaceOnUse" x="55" y="41" width="391" height="460">
<path d="M55 109.903C55 71.849 85.8489 41 123.903 41H422.482C435.167 41 445.45 51.283 445.45 63.9676V431.45C445.45 469.504 414.601 500.353 376.547 500.353H77.9676C65.283 500.353 55 490.07 55 477.385V109.903Z" fill="#FFE7C2"/>
</mask>
<g mask="url(#mask0_24_333)">
<g clip-path="url(#clip1_24_333)">
<path d="M125.08 407.751C128.966 373.013 158.337 346.744 193.292 346.744H292.248C327.202 346.744 356.573 373.013 360.459 407.751L370.824 500.409H114.716L125.08 407.751Z" fill="#DA75FD"/>
<mask id="mask1_24_333" style="mask-type:alpha" maskUnits="userSpaceOnUse" x="114" y="346" width="257" height="155">
<path d="M125.08 407.751C128.966 373.013 158.337 346.744 193.292 346.744H292.248C327.202 346.744 356.573 373.013 360.459 407.751L370.824 500.409H114.716L125.08 407.751Z" fill="#00D355"/>
</mask>
<g mask="url(#mask1_24_333)">
<path d="M131.228 407.751C135.113 373.013 164.485 346.744 199.439 346.744H298.395C333.35 346.744 362.721 373.013 366.606 407.751L376.971 500.409H120.863L131.228 407.751Z" fill="#A10CD6"/>
<path d="M137.373 407.751C141.259 373.013 170.63 346.744 205.585 346.744H304.541C339.495 346.744 368.866 373.013 372.752 407.751L383.116 500.409H127.009L137.373 407.751Z" fill="url(#paint0_linear_24_333)"/>
</g>
<path fill-rule="evenodd" clip-rule="evenodd" d="M307.308 438.943C309.005 438.943 310.381 440.319 310.381 442.016V500.408C310.381 502.106 309.005 503.482 307.308 503.482C305.611 503.482 304.235 502.106 304.235 500.408V442.016C304.235 440.319 305.611 438.943 307.308 438.943Z" fill="url(#paint1_linear_24_333)"/>
<path fill-rule="evenodd" clip-rule="evenodd" d="M177.505 436.044C179.202 436.044 180.578 437.42 180.578 439.117V497.509C180.578 499.207 179.202 500.583 177.505 500.583C175.808 500.583 174.432 499.207 174.432 497.509V439.117C174.432 437.42 175.808 436.044 177.505 436.044Z" fill="url(#paint2_linear_24_333)"/>
</g>
<path d="M351.76 159.373C370.995 215.107 485.172 341.545 369.18 374.354C259.736 405.311 205.677 294.614 186.442 238.88C167.207 183.145 163.719 104.082 237.208 89.4742C261.191 75.4703 331.23 99.8852 351.76 159.373Z" fill="#5236FF"/>
<path d="M339.939 192.918C354.619 235.453 427.274 338.158 339.939 370.519C264.131 398.609 215.76 305.349 212.128 254.162C197.448 211.627 194.989 151.219 251.744 139.84C270.294 129.068 324.271 147.519 339.939 192.918Z" fill="#4021FE"/>
<path d="M316.433 214.335C316.433 278.382 290.38 263.775 238.816 263.775C173.572 297.483 162.323 249.909 162.323 206.47C151.074 162.648 172.447 112.085 238.816 112.085C342.306 123.322 326.557 192.986 316.433 214.335Z" fill="#5236FF"/>
<path d="M226.444 290.741H253.442L260.55 345.966C262.149 358.391 252.471 369.395 239.943 369.395C227.415 369.395 217.736 358.391 219.336 345.966L226.444 290.741Z" fill="#FBC6D7"/>
<mask id="mask2_24_333" style="mask-type:alpha" maskUnits="userSpaceOnUse" x="219" y="290" width="42" height="80">
<path d="M226.444 290.741H253.442L260.55 345.966C262.149 358.391 252.471 369.395 239.943 369.395C227.415 369.395 217.736 358.391 219.336 345.966L226.444 290.741Z" fill="#FF7CA6"/>
</mask>
<g mask="url(#mask2_24_333)">
<path d="M227.568 290.741H254.566L257.94 308.719C248.735 323.004 236.567 324.45 218.569 328.945L227.568 290.741Z" fill="#FF7CA6"/>
</g>
<path d="M178.306 222.596C180.94 230.878 177.796 239.262 171.283 241.323C164.771 243.383 157.355 238.34 154.721 230.058C152.086 221.777 155.23 213.392 161.743 211.332C168.256 209.271 175.671 214.314 178.306 222.596Z" fill="#FBC6D7"/>
<path d="M175.625 223.526C177.341 228.927 175.087 234.461 170.589 235.886C166.091 237.311 161.053 234.087 159.337 228.685C157.62 223.284 159.875 217.75 164.373 216.325C168.871 214.901 173.909 218.125 175.625 223.526Z" fill="#FF7CA6"/>
<path d="M303.196 227.09C300.561 235.372 303.705 243.756 310.218 245.817C316.731 247.878 324.146 242.835 326.781 234.553C329.415 226.271 326.271 217.887 319.759 215.826C313.246 213.765 305.83 218.808 303.196 227.09Z" fill="#FBC6D7"/>
<path d="M305.877 228.02C304.16 233.422 306.415 238.955 310.913 240.38C315.411 241.805 320.448 238.581 322.165 233.18C323.881 227.778 321.626 222.244 317.129 220.82C312.631 219.395 307.593 222.619 305.877 228.02Z" fill="#FF7CA6"/>
<path d="M307.435 232.313C307.435 275.752 277.217 310.967 239.941 310.967C202.666 310.967 172.448 275.752 172.448 232.313C172.448 188.874 202.666 153.659 239.941 153.659C277.217 153.659 307.435 188.874 307.435 232.313Z" fill="#FBC6D7"/>
<mask id="mask3_24_333" style="mask-type:alpha" maskUnits="userSpaceOnUse" x="172" y="153" width="136" height="158">
<path d="M307.436 232.313C307.436 275.752 277.218 310.967 239.943 310.967C202.667 310.967 172.449 275.752 172.449 232.313C172.449 188.874 202.667 153.659 239.943 153.659C277.218 153.659 307.436 188.874 307.436 232.313Z" fill="#FBC6D7"/>
</mask>
<g mask="url(#mask3_24_333)">
<path d="M307.31 266.837C307.31 277.021 299.054 285.277 288.87 285.277C278.686 285.277 270.431 277.021 270.431 266.837C270.431 256.653 278.686 248.397 288.87 248.397C299.054 248.397 307.31 256.653 307.31 266.837Z" fill="#FF5E5E"/>
<path d="M212.04 266.837C212.04 277.021 203.784 285.277 193.6 285.277C183.416 285.277 175.16 277.021 175.16 266.837C175.16 256.653 183.416 248.397 193.6 248.397C203.784 248.397 212.04 256.653 212.04 266.837Z" fill="#FF5E5E"/>
</g>
<path fill-rule="evenodd" clip-rule="evenodd" d="M253.752 284.229C254.331 285.201 254.013 286.458 253.04 287.037C248.561 289.706 244.743 291.359 240.755 291.422C236.732 291.485 232.888 289.929 228.344 286.999C227.393 286.386 227.119 285.118 227.732 284.167C228.346 283.216 229.614 282.942 230.565 283.555C234.826 286.303 237.847 287.369 240.691 287.325C243.569 287.279 246.617 286.094 250.943 283.517C251.915 282.938 253.173 283.257 253.752 284.229Z" fill="#FF7FA8"/>
<path d="M214.089 232.007C214.089 237.099 211.795 241.227 208.967 241.227C206.138 241.227 203.844 237.099 203.844 232.007C203.844 226.915 206.138 222.787 208.967 222.787C211.795 222.787 214.089 226.915 214.089 232.007Z" fill="#361AE7"/>
<path d="M275.554 232.007C275.554 237.099 273.261 241.227 270.432 241.227C267.603 241.227 265.31 237.099 265.31 232.007C265.31 226.915 267.603 222.787 270.432 222.787C273.261 222.787 275.554 226.915 275.554 232.007Z" fill="#361AE7"/>
<path fill-rule="evenodd" clip-rule="evenodd" d="M237.137 226.372C238.268 226.372 239.186 227.29 239.186 228.421V256.718L248.567 255.087C249.681 254.893 250.742 255.639 250.936 256.754C251.13 257.869 250.384 258.93 249.269 259.124L237.488 261.173C236.892 261.276 236.281 261.111 235.818 260.722C235.355 260.333 235.088 259.759 235.088 259.154V228.421C235.088 227.29 236.005 226.372 237.137 226.372Z" fill="#FF7FA8"/>
<path d="M173.11 186.484C173.11 180.239 178.664 175.457 184.856 176.274C227.115 181.849 255.404 181.945 298.641 176.267C304.832 175.454 310.383 180.235 310.383 186.479V198.611C310.383 203.595 306.783 207.866 301.865 208.668C254.576 216.383 225.56 216.707 181.427 208.788C176.598 207.922 173.11 203.691 173.11 198.784V186.484Z" fill="white"/>
<mask id="mask4_24_333" style="mask-type:alpha" maskUnits="userSpaceOnUse" x="173" y="176" width="138" height="39">
<path d="M173.11 186.484C173.11 180.239 178.664 175.457 184.856 176.274C227.115 181.849 255.404 181.945 298.641 176.267C304.832 175.454 310.383 180.235 310.383 186.479V198.611C310.383 203.595 306.783 207.866 301.865 208.668C254.576 216.383 225.56 216.707 181.427 208.788C176.598 207.922 173.11 203.691 173.11 198.784V186.484Z" fill="white"/>
</mask>
<g mask="url(#mask4_24_333)">
<path d="M202.67 232.791C196.547 226.037 201.926 214.712 211.022 214.103C268.341 210.259 311.014 178.837 333.325 175.956C353.935 173.295 345.624 195.764 341.676 204.485C340.678 206.689 338.801 208.35 336.55 209.237C287.886 228.404 258.918 234.93 210.276 236.07C207.386 236.138 204.612 234.933 202.67 232.791Z" fill="#E9E9E9"/>
</g>
<path d="M175.822 200.852C178.072 199.728 190.446 167.143 228.692 154.783C243.691 175.383 279.988 216.358 305.185 215.459C313.059 196.732 318.459 157.255 277.063 149.165C225.318 139.053 175.822 146.918 175.822 173.885V200.852Z" fill="#5236FF"/>
</g>
</g>
<defs>
<linearGradient id="paint0_linear_24_333" x1="228.94" y1="535.239" x2="271.966" y2="346.744" gradientUnits="userSpaceOnUse">
<stop stop-color="#8300D3"/>
<stop offset="1" stop-color="#E43FFF"/>
</linearGradient>
<linearGradient id="paint1_linear_24_333" x1="307.308" y1="500.408" x2="307.308" y2="442.016" gradientUnits="userSpaceOnUse">
<stop stop-color="#FF77FA"/>
<stop offset="1" stop-color="#FF77E9" stop-opacity="0"/>
</linearGradient>
<linearGradient id="paint2_linear_24_333" x1="177.505" y1="497.509" x2="177.505" y2="439.117" gradientUnits="userSpaceOnUse">
<stop stop-color="#FF77FA"/>
<stop offset="1" stop-color="#FF77E9" stop-opacity="0"/>
</linearGradient>
<clipPath id="clip0_24_333">
<rect width="500" height="500" fill="white"/>
</clipPath>
<clipPath id="clip1_24_333">
<rect width="256.108" height="153.665" fill="white" transform="translate(114.716 346.744)"/>
</clipPath>
</defs>
</svg>
